<svg width="32" height="32" viewBox="0 0 32 32" fill="none" xmlns="http://www.w3.org/2000/svg">
<g clip-path="url(#clip0_210_541)">
<path d="M18.6667 22C19.1803 22.0003 19.6741 22.1981 20.0458 22.5525C20.4176 22.907 20.6387 23.3909 20.6634 23.9039C20.688 24.4169 20.5144 24.9198 20.1784 25.3083C19.8424 25.6968 19.3699 25.9411 18.8587 25.9907L18.6667 26H13.3333C12.8197 25.9997 12.3259 25.8019 11.9541 25.4475C11.5824 25.093 11.3613 24.6091 11.3366 24.0961C11.3119 23.5831 11.4856 23.0802 11.8216 22.6917C12.1575 22.3032 12.6301 22.0589 13.1413 22.0093L13.3333 22H18.6667ZM22.6667 14C23.1971 14 23.7058 14.2107 24.0809 14.5858C24.4559 14.9609 24.6667 15.4696 24.6667 16C24.6667 16.5304 24.4559 17.0391 24.0809 17.4142C23.7058 17.7893 23.1971 18 22.6667 18H9.33333C8.8029 18 8.29419 17.7893 7.91911 17.4142C7.54404 17.0391 7.33333 16.5304 7.33333 16C7.33333 15.4696 7.54404 14.9609 7.91911 14.5858C8.29419 14.2107 8.8029 14 9.33333 14H22.6667ZM26.6667 6C27.1971 6 27.7058 6.21071 28.0809 6.58579C28.4559 6.96086 28.6667 7.46957 28.6667 8C28.6667 8.53043 28.4559 9.03914 28.0809 9.41421C27.7058 9.78929 27.1971 10 26.6667 10H5.33333C4.8029 10 4.29419 9.78929 3.91911 9.41421C3.54404 9.03914 3.33333 8.53043 3.33333 8C3.33333 7.46957 3.54404 6.96086 3.91911 6.58579C4.29419 6.21071 4.8029 6 5.33333 6H26.6667Z" fill="#D9D9D9"/>
</g>
<defs>
<clipPath id="clip0_210_541">
<rect width="32" height="32" fill="white"/>
</clipPath>
</defs>
</svg>
